<?xml version="1.0" standalone="no"?>
<!DOCTYPE svg PUBLIC "-//W3C//DTD SVG 20010904//EN"
 "http://www.w3.org/TR/2001/REC-SVG-20010904/DTD/svg10.dtd">
<svg version="1.0" xmlns="http://www.w3.org/2000/svg"
 width="2048.000000pt" height="2048.000000pt" viewBox="0 0 2048.000000 2048.000000"
 preserveAspectRatio="xMidYMid meet">

<g transform="translate(0.000000,2048.000000) scale(0.100000,-0.100000)"
fill="#56318f" stroke="none">
<path d="M9895 20474 c-630 -28 -1123 -86 -1690 -199 -1667 -334 -3249 -1098
-4555 -2199 -322 -272 -821 -759 -1081 -1056 -993 -1133 -1700 -2397 -2125
-3800 -696 -2290 -564 -4787 368 -6975 444 -1044 1035 -1972 1802 -2835 248
-279 713 -731 1026 -996 2230 -1892 5202 -2733 8123 -2298 1868 278 3637 1079
5077 2298 314 266 787 725 1036 1006 1430 1609 2303 3563 2538 5680 47 420 60
661 60 1140 0 479 -13 720 -60 1140 -214 1927 -966 3741 -2178 5255 -375 469
-885 995 -1341 1386 -1698 1451 -3774 2292 -6025 2439 -168 11 -829 20 -975
14z m-4973 -6011 c21 -25 3000 -4692 3083 -4831 37 -62 70 -111 72 -108 3 3 0
56 -6 118 -28 278 -31 524 -31 2636 l0 2192 345 0 345 0 0 -2915 0 -2915 -422
0 -423 0 -1505 2336 c-828 1284 -1529 2377 -1558 2427 -29 51 -67 127 -84 170
-36 87 -63 105 -53 35 22 -166 25 -480 25 -2634 l0 -2334 -340 0 -340 0 0
2920 0 2920 438 0 c406 0 440 -1 454 -17z m12998 -298 l0 -315 -845 0 -845 0
0 -2605 0 -2605 -345 0 -345 0 0 2605 0 2605 -837 2 -838 3 -3 300 c-1 165 0
305 3 312 3 10 409 13 2030 13 l2025 0 0 -315z m-4722 -2 l-3 -308 -1127 -3
-1128 -2 0 -965 0 -965 1050 0 1050 0 0 -310 0 -310 -1050 0 -1050 0 0 -1010
0 -1010 1206 0 1207 0 -6 -82 c-4 -46 -7 -190 -7 -320 l0 -238 -1550 0 -1550
0 0 2915 0 2915 1480 0 1480 0 -2 -307z m-10645 -4731 c91 -42 182 -133 228
-227 33 -68 34 -74 34 -190 0 -114 -2 -123 -31 -185 -112 -234 -382 -336 -605
-228 -186 90 -285 274 -257 478 22 162 146 314 302 371 40 15 74 18 156 16 95
-2 112 -6 173 -35z m5508 -2173 c60 -10 153 -34 206 -52 l98 -32 3 -162 c1
-90 0 -163 -3 -163 -3 0 -36 15 -73 34 -259 130 -621 162 -886 80 -334 -105
-584 -380 -683 -752 -23 -86 -27 -121 -31 -308 -4 -232 6 -323 55 -457 111
-309 309 -513 588 -606 122 -41 242 -55 397 -48 209 10 381 53 551 138 l77 39
0 -150 0 -151 -47 -20 c-231 -101 -499 -148 -773 -135 -264 12 -444 69 -649
207 -252 168 -434 448 -512 788 -27 114 -37 427 -19 568 56 451 320 847 702
1052 143 78 333 135 498 151 125 13 375 2 501 -21z m1949 -754 c295 -96 475
-290 577 -620 27 -88 28 -95 27 -335 0 -239 -1 -247 -27 -334 -111 -358 -349
-595 -683 -678 -115 -28 -350 -31 -458 -5 -266 66 -473 227 -601 470 -90 171
-120 323 -112 570 6 194 32 309 102 453 95 197 219 322 411 417 160 80 253 97
489 93 176 -2 196 -5 275 -31z m3378 9 c42 -9 113 -33 157 -53 156 -74 253
-169 333 -326 83 -165 112 -304 112 -536 l0 -159 -676 0 -677 0 6 -87 c9 -151
76 -316 167 -410 51 -52 141 -108 218 -135 59 -20 86 -23 222 -23 116 0 171 5
220 18 108 29 215 76 300 132 l81 53 -3 -146 -3 -146 -65 -38 c-77 -45 -185
-88 -290 -114 -62 -16 -112 -19 -290 -19 -245 0 -297 10 -440 87 -173 92 -284
220 -373 426 -120 281 -113 692 19 971 127 271 347 452 614 506 92 19 275 18
368 -1z m-1312 -15 l44 -11 0 -159 c0 -88 -2 -159 -5 -159 -3 0 -16 7 -28 14
-32 21 -133 46 -187 46 -104 0 -225 -54 -295 -132 -72 -80 -142 -245 -165
-388 -6 -38 -10 -288 -10 -607 l0 -543 -160 0 -160 0 0 960 0 960 160 0 160 0
0 -192 0 -193 25 59 c66 162 192 287 340 338 59 20 212 24 281 7z"/>
<path d="M9515 6245 c-184 -51 -323 -180 -401 -373 -51 -126 -59 -176 -59
-362 1 -203 10 -252 81 -399 80 -165 220 -280 394 -322 81 -20 271 -17 345 5
159 47 265 137 338 286 76 154 90 223 90 435 0 212 -15 282 -89 435 -76 154
-194 253 -354 295 -70 19 -276 18 -345 0z"/>
<path d="M13081 6244 c-36 -7 -90 -26 -120 -40 -74 -36 -187 -150 -236 -237
-40 -72 -85 -201 -85 -242 l0 -25 516 0 517 0 -7 74 c-13 140 -70 280 -146
357 -25 25 -75 60 -110 77 -107 52 -206 63 -329 36z"/>
</g>
</svg>
