<svg id="visual" viewBox="0 0 960 200" width="960" height="200" xmlns="http://www.w3.org/2000/svg" xmlns:xlink="http://www.w3.org/1999/xlink" version="1.1"><path d="M0 56L20 57.5C40 59 80 62 120 62.8C160 63.7 200 62.3 240 62C280 61.7 320 62.3 360 63.5C400 64.7 440 66.3 480 67C520 67.7 560 67.3 600 67C640 66.7 680 66.3 720 64.3C760 62.3 800 58.7 840 56.2C880 53.7 920 52.3 940 51.7L960 51L960 0L940 0C920 0 880 0 840 0C800 0 760 0 720 0C680 0 640 0 600 0C560 0 520 0 480 0C440 0 400 0 360 0C320 0 280 0 240 0C200 0 160 0 120 0C80 0 40 0 20 0L0 0Z" fill="#a076de"></path><path d="M0 52L20 49.8C40 47.7 80 43.3 120 44C160 44.7 200 50.3 240 51.2C280 52 320 48 360 45C400 42 440 40 480 39.7C520 39.3 560 40.7 600 42.2C640 43.7 680 45.3 720 45.7C760 46 800 45 840 44.3C880 43.7 920 43.3 940 43.2L960 43L960 0L940 0C920 0 880 0 840 0C800 0 760 0 720 0C680 0 640 0 600 0C560 0 520 0 480 0C440 0 400 0 360 0C320 0 280 0 240 0C200 0 160 0 120 0C80 0 40 0 20 0L0 0Z" fill="#8660bd"></path><path d="M0 36L20 37.2C40 38.3 80 40.7 120 41C160 41.3 200 39.7 240 38.5C280 37.3 320 36.7 360 37.2C400 37.7 440 39.3 480 39C520 38.7 560 36.3 600 36.3C640 36.3 680 38.7 720 39.8C760 41 800 41 840 40.8C880 40.7 920 40.3 940 40.2L960 40L960 0L940 0C920 0 880 0 840 0C800 0 760 0 720 0C680 0 640 0 600 0C560 0 520 0 480 0C440 0 400 0 360 0C320 0 280 0 240 0C200 0 160 0 120 0C80 0 40 0 20 0L0 0Z" fill="#6c4a9d"></path><path d="M0 28L20 28.5C40 29 80 30 120 29.3C160 28.7 200 26.3 240 24.5C280 22.7 320 21.3 360 21C400 20.7 440 21.3 480 21.5C520 21.7 560 21.3 600 22C640 22.7 680 24.3 720 25.2C760 26 800 26 840 25.7C880 25.3 920 24.7 940 24.3L960 24L960 0L940 0C920 0 880 0 840 0C800 0 760 0 720 0C680 0 640 0 600 0C560 0 520 0 480 0C440 0 400 0 360 0C320 0 280 0 240 0C200 0 160 0 120 0C80 0 40 0 20 0L0 0Z" fill="#53357e"></path><path d="M0 18L20 17C40 16 80 14 120 12C160 10 200 8 240 7.5C280 7 320 8 360 9.5C400 11 440 13 480 13.8C520 14.7 560 14.3 600 13.8C640 13.3 680 12.7 720 11.7C760 10.7 800 9.3 840 9.3C880 9.3 920 10.7 940 11.3L960 12L960 0L940 0C920 0 880 0 840 0C800 0 760 0 720 0C680 0 640 0 600 0C560 0 520 0 480 0C440 0 400 0 360 0C320 0 280 0 240 0C200 0 160 0 120 0C80 0 40 0 20 0L0 0Z" fill="#3b2260"></path></svg>