<svg id="visual" viewBox="0 0 1920 300" width="1920" height="300" xmlns="http://www.w3.org/2000/svg" xmlns:xlink="http://www.w3.org/1999/xlink" version="1.1"><path d="M0 179L29.2 181.8C58.3 184.7 116.7 190.3 174.8 195.7C233 201 291 206 349.2 204.5C407.3 203 465.7 195 523.8 195C582 195 640 203 698.2 208C756.3 213 814.7 215 872.8 210.2C931 205.3 989 193.7 1047.2 198.5C1105.3 203.3 1163.7 224.7 1221.8 227.3C1280 230 1338 214 1396.2 210.3C1454.3 206.7 1512.7 215.3 1570.8 216C1629 216.7 1687 209.3 1745.2 204.7C1803.3 200 1861.7 198 1890.8 197L1920 196L1920 301L1890.8 301C1861.7 301 1803.3 301 1745.2 301C1687 301 1629 301 1570.8 301C1512.7 301 1454.3 301 1396.2 301C1338 301 1280 301 1221.8 301C1163.7 301 1105.3 301 1047.2 301C989 301 931 301 872.8 301C814.7 301 756.3 301 698.2 301C640 301 582 301 523.8 301C465.7 301 407.3 301 349.2 301C291 301 233 301 174.8 301C116.7 301 58.3 301 29.2 301L0 301Z" fill="#a076de"></path><path d="M0 227L29.2 227.8C58.3 228.7 116.7 230.3 174.8 228.7C233 227 291 222 349.2 226.2C407.3 230.3 465.7 243.7 523.8 242.8C582 242 640 227 698.2 219.8C756.3 212.7 814.7 213.3 872.8 219.7C931 226 989 238 1047.2 239.3C1105.3 240.7 1163.7 231.3 1221.8 227.2C1280 223 1338 224 1396.2 225.3C1454.3 226.7 1512.7 228.3 1570.8 231.8C1629 235.3 1687 240.7 1745.2 245.8C1803.3 251 1861.7 256 1890.8 258.5L1920 261L1920 301L1890.8 301C1861.7 301 1803.3 301 1745.2 301C1687 301 1629 301 1570.8 301C1512.7 301 1454.3 301 1396.2 301C1338 301 1280 301 1221.8 301C1163.7 301 1105.3 301 1047.2 301C989 301 931 301 872.8 301C814.7 301 756.3 301 698.2 301C640 301 582 301 523.8 301C465.7 301 407.3 301 349.2 301C291 301 233 301 174.8 301C116.7 301 58.3 301 29.2 301L0 301Z" fill="#7d58b2"></path><path d="M0 279L29.2 274.3C58.3 269.7 116.7 260.3 174.8 251.7C233 243 291 235 349.2 237.3C407.3 239.7 465.7 252.3 523.8 254.8C582 257.3 640 249.7 698.2 248C756.3 246.3 814.7 250.7 872.8 253.2C931 255.7 989 256.3 1047.2 252.7C1105.3 249 1163.7 241 1221.8 241.8C1280 242.7 1338 252.3 1396.2 255.2C1454.3 258 1512.7 254 1570.8 256C1629 258 1687 266 1745.2 266.2C1803.3 266.3 1861.7 258.7 1890.8 254.8L1920 251L1920 301L1890.8 301C1861.7 301 1803.3 301 1745.2 301C1687 301 1629 301 1570.8 301C1512.7 301 1454.3 301 1396.2 301C1338 301 1280 301 1221.8 301C1163.7 301 1105.3 301 1047.2 301C989 301 931 301 872.8 301C814.7 301 756.3 301 698.2 301C640 301 582 301 523.8 301C465.7 301 407.3 301 349.2 301C291 301 233 301 174.8 301C116.7 301 58.3 301 29.2 301L0 301Z" fill="#5b3c88"></path><path d="M0 283L29.2 285.5C58.3 288 116.7 293 174.8 293.3C233 293.7 291 289.3 349.2 282.8C407.3 276.3 465.7 267.7 523.8 268.2C582 268.7 640 278.3 698.2 278.3C756.3 278.3 814.7 268.7 872.8 264.8C931 261 989 263 1047.2 268.2C1105.3 273.3 1163.7 281.7 1221.8 280C1280 278.3 1338 266.7 1396.2 260.7C1454.3 254.7 1512.7 254.3 1570.8 256.7C1629 259 1687 264 1745.2 265.3C1803.3 266.7 1861.7 264.3 1890.8 263.2L1920 262L1920 301L1890.8 301C1861.7 301 1803.3 301 1745.2 301C1687 301 1629 301 1570.8 301C1512.7 301 1454.3 301 1396.2 301C1338 301 1280 301 1221.8 301C1163.7 301 1105.3 301 1047.2 301C989 301 931 301 872.8 301C814.7 301 756.3 301 698.2 301C640 301 582 301 523.8 301C465.7 301 407.3 301 349.2 301C291 301 233 301 174.8 301C116.7 301 58.3 301 29.2 301L0 301Z" fill="#3b2260"></path></svg>