<svg id="visual" viewBox="0 0 960 200" width="960" height="200" xmlns="http://www.w3.org/2000/svg" xmlns:xlink="http://www.w3.org/1999/xlink" version="1.1"><path d="M0 142L20 140.5C40 139 80 136 120 135C160 134 200 135 240 137.3C280 139.7 320 143.3 360 142.8C400 142.3 440 137.7 480 135.5C520 133.3 560 133.7 600 136.5C640 139.3 680 144.7 720 147.5C760 150.3 800 150.7 840 148.7C880 146.7 920 142.3 940 140.2L960 138L960 201L940 201C920 201 880 201 840 201C800 201 760 201 720 201C680 201 640 201 600 201C560 201 520 201 480 201C440 201 400 201 360 201C320 201 280 201 240 201C200 201 160 201 120 201C80 201 40 201 20 201L0 201Z" fill="#a076de"></path><path d="M0 155L20 153.7C40 152.3 80 149.7 120 147.8C160 146 200 145 240 145.8C280 146.7 320 149.3 360 149.8C400 150.3 440 148.7 480 147.5C520 146.3 560 145.7 600 147.7C640 149.7 680 154.3 720 155C760 155.7 800 152.3 840 151.8C880 151.3 920 153.7 940 154.8L960 156L960 201L940 201C920 201 880 201 840 201C800 201 760 201 720 201C680 201 640 201 600 201C560 201 520 201 480 201C440 201 400 201 360 201C320 201 280 201 240 201C200 201 160 201 120 201C80 201 40 201 20 201L0 201Z" fill="#8660bd"></path><path d="M0 161L20 161.2C40 161.3 80 161.7 120 161.8C160 162 200 162 240 160.8C280 159.7 320 157.3 360 158.8C400 160.3 440 165.7 480 168C520 170.3 560 169.7 600 169C640 168.3 680 167.7 720 166.5C760 165.3 800 163.7 840 161.7C880 159.7 920 157.3 940 156.2L960 155L960 201L940 201C920 201 880 201 840 201C800 201 760 201 720 201C680 201 640 201 600 201C560 201 520 201 480 201C440 201 400 201 360 201C320 201 280 201 240 201C200 201 160 201 120 201C80 201 40 201 20 201L0 201Z" fill="#6c4a9d"></path><path d="M0 180L20 178.8C40 177.7 80 175.3 120 173.3C160 171.3 200 169.7 240 171C280 172.3 320 176.7 360 178.2C400 179.7 440 178.3 480 177.8C520 177.3 560 177.7 600 176.3C640 175 680 172 720 170.3C760 168.7 800 168.3 840 170.2C880 172 920 176 940 178L960 180L960 201L940 201C920 201 880 201 840 201C800 201 760 201 720 201C680 201 640 201 600 201C560 201 520 201 480 201C440 201 400 201 360 201C320 201 280 201 240 201C200 201 160 201 120 201C80 201 40 201 20 201L0 201Z" fill="#53357e"></path><path d="M0 184L20 184.7C40 185.3 80 186.7 120 186C160 185.3 200 182.7 240 182C280 181.3 320 182.7 360 184.3C400 186 440 188 480 187.5C520 187 560 184 600 183.2C640 182.3 680 183.7 720 183.5C760 183.3 800 181.7 840 182.2C880 182.7 920 185.3 940 186.7L960 188L960 201L940 201C920 201 880 201 840 201C800 201 760 201 720 201C680 201 640 201 600 201C560 201 520 201 480 201C440 201 400 201 360 201C320 201 280 201 240 201C200 201 160 201 120 201C80 201 40 201 20 201L0 201Z" fill="#3b2260"></path></svg>