<svg id="visual" viewBox="0 0 1920 300" width="1920" height="300" xmlns="http://www.w3.org/2000/svg" xmlns:xlink="http://www.w3.org/1999/xlink" version="1.1"><path d="M0 74L29.2 79.7C58.3 85.3 116.7 96.7 174.8 94.2C233 91.7 291 75.3 349.2 77C407.3 78.7 465.7 98.3 523.8 101.7C582 105 640 92 698.2 83.3C756.3 74.7 814.7 70.3 872.8 66.8C931 63.3 989 60.7 1047.2 58.3C1105.3 56 1163.7 54 1221.8 54.5C1280 55 1338 58 1396.2 66.7C1454.3 75.3 1512.7 89.7 1570.8 93C1629 96.3 1687 88.7 1745.2 86.5C1803.3 84.3 1861.7 87.7 1890.8 89.3L1920 91L1920 0L1890.8 0C1861.7 0 1803.3 0 1745.2 0C1687 0 1629 0 1570.8 0C1512.7 0 1454.3 0 1396.2 0C1338 0 1280 0 1221.8 0C1163.7 0 1105.3 0 1047.2 0C989 0 931 0 872.8 0C814.7 0 756.3 0 698.2 0C640 0 582 0 523.8 0C465.7 0 407.3 0 349.2 0C291 0 233 0 174.8 0C116.7 0 58.3 0 29.2 0L0 0Z" fill="#a076de"></path><path d="M0 53L29.2 55C58.3 57 116.7 61 174.8 58.8C233 56.7 291 48.3 349.2 51.5C407.3 54.7 465.7 69.3 523.8 73C582 76.7 640 69.3 698.2 71.2C756.3 73 814.7 84 872.8 86.5C931 89 989 83 1047.2 73.5C1105.3 64 1163.7 51 1221.8 43.7C1280 36.3 1338 34.7 1396.2 41.8C1454.3 49 1512.7 65 1570.8 67.8C1629 70.7 1687 60.3 1745.2 61.2C1803.3 62 1861.7 74 1890.8 80L1920 86L1920 0L1890.8 0C1861.7 0 1803.3 0 1745.2 0C1687 0 1629 0 1570.8 0C1512.7 0 1454.3 0 1396.2 0C1338 0 1280 0 1221.8 0C1163.7 0 1105.3 0 1047.2 0C989 0 931 0 872.8 0C814.7 0 756.3 0 698.2 0C640 0 582 0 523.8 0C465.7 0 407.3 0 349.2 0C291 0 233 0 174.8 0C116.7 0 58.3 0 29.2 0L0 0Z" fill="#7d58b2"></path><path d="M0 30L29.2 32.2C58.3 34.3 116.7 38.7 174.8 39.5C233 40.3 291 37.7 349.2 39.8C407.3 42 465.7 49 523.8 52.2C582 55.3 640 54.7 698.2 54.3C756.3 54 814.7 54 872.8 56.3C931 58.7 989 63.3 1047.2 66C1105.3 68.7 1163.7 69.3 1221.8 61C1280 52.7 1338 35.3 1396.2 34.8C1454.3 34.3 1512.7 50.7 1570.8 54C1629 57.3 1687 47.7 1745.2 45.8C1803.3 44 1861.7 50 1890.8 53L1920 56L1920 0L1890.8 0C1861.7 0 1803.3 0 1745.2 0C1687 0 1629 0 1570.8 0C1512.7 0 1454.3 0 1396.2 0C1338 0 1280 0 1221.8 0C1163.7 0 1105.3 0 1047.2 0C989 0 931 0 872.8 0C814.7 0 756.3 0 698.2 0C640 0 582 0 523.8 0C465.7 0 407.3 0 349.2 0C291 0 233 0 174.8 0C116.7 0 58.3 0 29.2 0L0 0Z" fill="#5b3c88"></path><path d="M0 35L29.2 36.2C58.3 37.3 116.7 39.7 174.8 34.7C233 29.7 291 17.3 349.2 14.7C407.3 12 465.7 19 523.8 21C582 23 640 20 698.2 16.7C756.3 13.3 814.7 9.7 872.8 13.7C931 17.7 989 29.3 1047.2 30.7C1105.3 32 1163.7 23 1221.8 17.5C1280 12 1338 10 1396.2 10C1454.3 10 1512.7 12 1570.8 15.7C1629 19.3 1687 24.7 1745.2 23.2C1803.3 21.7 1861.7 13.3 1890.8 9.2L1920 5L1920 0L1890.8 0C1861.7 0 1803.3 0 1745.2 0C1687 0 1629 0 1570.8 0C1512.7 0 1454.3 0 1396.2 0C1338 0 1280 0 1221.8 0C1163.7 0 1105.3 0 1047.2 0C989 0 931 0 872.8 0C814.7 0 756.3 0 698.2 0C640 0 582 0 523.8 0C465.7 0 407.3 0 349.2 0C291 0 233 0 174.8 0C116.7 0 58.3 0 29.2 0L0 0Z" fill="#3b2260"></path></svg>